# xmcd
#
# Track frame offsets:
#	182
#	19455
#	29457
#	42242
#	57365
#	87210
#	101807
#	115450
#	126107
#	135930
#	148362
#	174395
#	187087
#
# Disc length: 2746 seconds
#
# Revision: 2
# Processed by: cddbd v1.4PL0 Copyright (c) Steve Scherf et al.
# Submitted via: EasyCDDAExtractor 5.0.2.1
#
DISCID=bf0ab80d
DTITLE=André Christovam - Fickle Pickle
DYEAR=1993
DGENRE=Blues
TTITLE0=Early In The Morning
TTITLE1=Ain't Superstitious
TTITLE2=Poor Boy
TTITLE3=Steady Rollin' Man
TTITLE4=Stormy Monday Blues
TTITLE5=Highway 49
TTITLE6=Key To The Highway
TTITLE7=Ain't Got You
TTITLE8=Done Somebody Wrong
TTITLE9=It Hurts Me Too
TTITLE10=Messin' With The Kids
TTITLE11=I'm Ready
TTITLE12=Politician
EXTD=
EXTT0=
EXTT1=
EXTT2=
EXTT3=
EXTT4=
EXTT5=
EXTT6=
EXTT7=
EXTT8=
EXTT9=
EXTT10=
EXTT11=
EXTT12=
PLAYORDER=
